<?xml version="1.0" encoding="UTF-8" standalone="no"?>
<!DOCTYPE svg PUBLIC "-//W3C//DTD SVG 1.1//EN" "http://www.w3.org/Graphics/SVG/1.1/DTD/svg11.dtd">
<svg width="100%" height="100%" viewBox="0 0 142 53" version="1.1" xmlns="http://www.w3.org/2000/svg" xmlns:xlink="http://www.w3.org/1999/xlink" xml:space="preserve" xmlns:serif="http://www.serif.com/" style="fill-rule:evenodd;clip-rule:evenodd;stroke-linejoin:round;stroke-miterlimit:2;">
    <g transform="matrix(1,0,0,1,-238.129,-168.358)">
        <g>
            <path d="M238.129,190.858L238.129,188.608L240.379,188.608L240.379,170.608L238.129,170.608L238.129,168.358L251.629,168.358L251.629,170.608L253.879,170.608L253.879,177.358L251.629,177.358L251.629,179.608L244.879,179.608L244.879,188.608L247.129,188.608L247.129,190.858L238.129,190.858ZM244.879,177.358L249.379,177.358L249.379,170.608L244.879,170.608L244.879,177.358Z" style="fill-rule:nonzero;"/>
            <path d="M260.629,190.858L260.629,188.608L262.879,188.608L262.879,177.358L260.629,177.358L260.629,175.108L267.379,175.108L267.379,188.608L269.629,188.608L269.629,190.858L260.629,190.858ZM262.879,168.358L267.379,168.358L267.379,172.858L262.879,172.858L262.879,168.358Z" style="fill-rule:nonzero;"/>
            <path d="M292.129,190.858L292.129,188.608L294.379,188.608L294.379,170.608L292.129,170.608L292.129,168.358L305.629,168.358L305.629,170.608L307.879,170.608L307.879,177.358L305.629,177.358L305.629,181.858L307.879,181.858L307.879,190.858L303.379,190.858L303.379,181.858L301.129,181.858L301.129,179.608L298.879,179.608L298.879,190.858L292.129,190.858ZM298.879,177.358L303.379,177.358L303.379,170.608L298.879,170.608L298.879,177.358Z" style="fill-rule:nonzero;"/>
            <path d="M310.129,188.608L310.129,184.108L314.629,184.108L314.629,188.608L321.379,188.608L321.379,181.858L319.129,181.858L319.129,179.608L314.629,179.608L314.629,177.358L312.379,177.358L312.379,175.108L310.129,175.108L310.129,170.608L312.379,170.608L312.379,168.358L323.629,168.358L323.629,170.608L325.879,170.608L325.879,175.108L321.379,175.108L321.379,170.608L314.629,170.608L314.629,175.108L316.879,175.108L316.879,177.358L321.379,177.358L321.379,179.608L323.629,179.608L323.629,181.858L325.879,181.858L325.879,188.608L323.629,188.608L323.629,190.858L312.379,190.858L312.379,188.608L310.129,188.608Z" style="fill-rule:nonzero;"/>
            <path d="M328.129,190.858L328.129,184.108L330.379,184.108L330.379,181.858L332.629,181.858L332.629,179.608L334.879,179.608L334.879,177.358L337.129,177.358L337.129,175.108L339.379,175.108L339.379,170.608L332.629,170.608L332.629,172.858L328.129,172.858L328.129,170.608L330.379,170.608L330.379,168.358L341.629,168.358L341.629,170.608L343.879,170.608L343.879,175.108L341.629,175.108L341.629,177.358L339.379,177.358L339.379,179.608L337.129,179.608L337.129,181.858L334.879,181.858L334.879,184.108L332.629,184.108L332.629,188.608L339.379,188.608L339.379,186.358L343.879,186.358L343.879,190.858L328.129,190.858Z" style="fill-rule:nonzero;"/>
            <path d="M346.129,188.608L346.129,186.358L350.629,186.358L350.629,188.608L357.379,188.608L357.379,179.608L350.629,179.608L350.629,177.358L357.379,177.358L357.379,170.608L350.629,170.608L350.629,172.858L346.129,172.858L346.129,170.608L348.379,170.608L348.379,168.358L359.629,168.358L359.629,170.608L361.879,170.608L361.879,177.358L359.629,177.358L359.629,179.608L361.879,179.608L361.879,188.608L359.629,188.608L359.629,190.858L348.379,190.858L348.379,188.608L346.129,188.608Z" style="fill-rule:nonzero;"/>
            <path d="M364.129,190.858L364.129,184.108L366.379,184.108L366.379,181.858L368.629,181.858L368.629,179.608L370.879,179.608L370.879,177.358L373.129,177.358L373.129,175.108L375.379,175.108L375.379,170.608L368.629,170.608L368.629,172.858L364.129,172.858L364.129,170.608L366.379,170.608L366.379,168.358L377.629,168.358L377.629,170.608L379.879,170.608L379.879,175.108L377.629,175.108L377.629,177.358L375.379,177.358L375.379,179.608L373.129,179.608L373.129,181.858L370.879,181.858L370.879,184.108L368.629,184.108L368.629,188.608L375.379,188.608L375.379,186.358L379.879,186.358L379.879,190.858L364.129,190.858Z" style="fill-rule:nonzero;"/>
            <path d="M274.129,218.608L274.129,205.108L278.629,205.108L278.629,216.358L280.879,216.358L280.879,209.608L283.129,209.608L283.129,216.358L285.379,216.358L285.379,205.108L289.879,205.108L289.879,218.608L287.629,218.608L287.629,220.858L283.129,220.858L283.129,218.608L280.879,218.608L280.879,220.858L276.379,220.858L276.379,218.608L274.129,218.608Z" style="fill-rule:nonzero;"/>
            <path d="M292.129,216.358L294.379,216.358L294.379,214.108L296.629,214.108L296.629,211.858L298.879,211.858L298.879,209.608L301.129,209.608L301.129,207.358L303.379,207.358L303.379,205.108L305.629,205.108L305.629,202.858L307.879,202.858L307.879,207.358L305.629,207.358L305.629,209.608L303.379,209.608L303.379,211.858L301.129,211.858L301.129,214.108L298.879,214.108L298.879,216.358L296.629,216.358L296.629,218.608L294.379,218.608L294.379,220.858L292.129,220.858L292.129,216.358Z" style="fill-rule:nonzero;"/>
            <path d="M310.129,220.858L310.129,198.358L314.629,198.358L314.629,200.608L316.879,200.608L316.879,202.858L319.129,202.858L319.129,205.108L321.379,205.108L321.379,198.358L325.879,198.358L325.879,220.858L321.379,220.858L321.379,211.858L319.129,211.858L319.129,209.608L316.879,209.608L316.879,207.358L314.629,207.358L314.629,220.858L310.129,220.858Z" style="fill-rule:nonzero;"/>
            <path d="M328.129,218.608L328.129,198.358L332.629,198.358L332.629,218.608L339.379,218.608L339.379,198.358L343.879,198.358L343.879,218.608L341.629,218.608L341.629,220.858L330.379,220.858L330.379,218.608L328.129,218.608Z" style="fill-rule:nonzero;"/>
            <path d="M346.129,220.858L346.129,218.608L348.379,218.608L348.379,200.608L346.129,200.608L346.129,198.358L355.129,198.358L355.129,200.608L352.879,200.608L352.879,218.608L357.379,218.608L357.379,216.358L359.629,216.358L359.629,214.108L361.879,214.108L361.879,220.858L346.129,220.858Z" style="fill-rule:nonzero;"/>
            <path d="M364.129,220.858L364.129,218.608L366.379,218.608L366.379,200.608L364.129,200.608L364.129,198.358L373.129,198.358L373.129,200.608L370.879,200.608L370.879,218.608L375.379,218.608L375.379,216.358L377.629,216.358L377.629,214.108L379.879,214.108L379.879,220.858L364.129,220.858Z" style="fill-rule:nonzero;"/>
        </g>
    </g>
</svg>
